<?xml version="1.0" encoding="UTF-8" standalone="no"?>
<!-- Created with Inkscape (http://www.inkscape.org/) -->

<svg
   xmlns:dc="http://purl.org/dc/elements/1.1/"
   xmlns:cc="http://creativecommons.org/ns#"
   xmlns:rdf="http://www.w3.org/1999/02/22-rdf-syntax-ns#"
   xmlns:svg="http://www.w3.org/2000/svg"
   xmlns="http://www.w3.org/2000/svg"
   xmlns:xlink="http://www.w3.org/1999/xlink"
   xmlns:sodipodi="http://sodipodi.sourceforge.net/DTD/sodipodi-0.dtd"
   xmlns:inkscape="http://www.inkscape.org/namespaces/inkscape"
   width="210mm"
   height="297mm"
   id="svg3151"
   version="1.1"
   inkscape:version="0.48.5 r10040"
   sodipodi:docname="Neues Dokument 2">
  <defs
     id="defs3153">
    <linearGradient
       inkscape:collect="always"
       id="linearGradient4330">
      <stop
         style="stop-color:#ffffff;stop-opacity:1;"
         offset="0"
         id="stop4332" />
      <stop
         style="stop-color:#ffffff;stop-opacity:0;"
         offset="1"
         id="stop4334" />
    </linearGradient>
    <linearGradient
       inkscape:collect="always"
       xlink:href="#linearGradient4330"
       id="linearGradient4336"
       x1="112.14286"
       y1="326.64789"
       x2="99.464287"
       y2="346.64789"
       gradientUnits="userSpaceOnUse" />
    <linearGradient
       gradientTransform="translate(47.777845,0.38332966)"
       inkscape:collect="always"
       xlink:href="#linearGradient4330-2"
       id="linearGradient4336-5"
       x1="112.14286"
       y1="326.64789"
       x2="99.464287"
       y2="346.64789"
       gradientUnits="userSpaceOnUse" />
    <linearGradient
       inkscape:collect="always"
       id="linearGradient4330-2">
      <stop
         style="stop-color:#ffffff;stop-opacity:1;"
         offset="0"
         id="stop4332-7" />
      <stop
         style="stop-color:#ffffff;stop-opacity:0;"
         offset="1"
         id="stop4334-6" />
    </linearGradient>
    <linearGradient
       gradientTransform="translate(95.349325,0.26095987)"
       inkscape:collect="always"
       xlink:href="#linearGradient4330-1"
       id="linearGradient4336-2"
       x1="112.14286"
       y1="326.64789"
       x2="99.464287"
       y2="346.64789"
       gradientUnits="userSpaceOnUse" />
    <linearGradient
       inkscape:collect="always"
       id="linearGradient4330-1">
      <stop
         style="stop-color:#ffffff;stop-opacity:1;"
         offset="0"
         id="stop4332-6" />
      <stop
         style="stop-color:#ffffff;stop-opacity:0;"
         offset="1"
         id="stop4334-8" />
    </linearGradient>
    <linearGradient
       gradientTransform="translate(155.95848,-0.24411676)"
       inkscape:collect="always"
       xlink:href="#linearGradient4330-27"
       id="linearGradient4336-9"
       x1="112.14286"
       y1="326.64789"
       x2="99.464287"
       y2="346.64789"
       gradientUnits="userSpaceOnUse" />
    <linearGradient
       inkscape:collect="always"
       id="linearGradient4330-27">
      <stop
         style="stop-color:#ffffff;stop-opacity:1;"
         offset="0"
         id="stop4332-9" />
      <stop
         style="stop-color:#ffffff;stop-opacity:0;"
         offset="1"
         id="stop4334-5" />
    </linearGradient>
    <linearGradient
       gradientTransform="translate(203.94073,-0.24411713)"
       inkscape:collect="always"
       xlink:href="#linearGradient4330-6"
       id="linearGradient4336-8"
       x1="112.14286"
       y1="326.64789"
       x2="99.464287"
       y2="346.64789"
       gradientUnits="userSpaceOnUse" />
    <linearGradient
       inkscape:collect="always"
       id="linearGradient4330-6">
      <stop
         style="stop-color:#ffffff;stop-opacity:1;"
         offset="0"
         id="stop4332-5" />
      <stop
         style="stop-color:#ffffff;stop-opacity:0;"
         offset="1"
         id="stop4334-0" />
    </linearGradient>
    <linearGradient
       gradientTransform="translate(251.88499,-0.15238475)"
       inkscape:collect="always"
       xlink:href="#linearGradient4330-5"
       id="linearGradient4336-6"
       x1="112.14286"
       y1="326.64789"
       x2="99.464287"
       y2="346.64789"
       gradientUnits="userSpaceOnUse" />
    <linearGradient
       inkscape:collect="always"
       id="linearGradient4330-5">
      <stop
         style="stop-color:#ffffff;stop-opacity:1;"
         offset="0"
         id="stop4332-0" />
      <stop
         style="stop-color:#ffffff;stop-opacity:0;"
         offset="1"
         id="stop4334-9" />
    </linearGradient>
  </defs>
  <sodipodi:namedview
     id="base"
     pagecolor="#ffffff"
     bordercolor="#666666"
     borderopacity="1.0"
     inkscape:pageopacity="0.0"
     inkscape:pageshadow="2"
     inkscape:zoom="0.98994949"
     inkscape:cx="144.92901"
     inkscape:cy="862.04556"
     inkscape:document-units="px"
     inkscape:current-layer="layer1"
     showgrid="false"
     showguides="true"
     inkscape:guide-bbox="true"
     inkscape:snap-global="true"
     inkscape:snap-bbox="true"
     inkscape:bbox-paths="false"
     inkscape:bbox-nodes="false"
     inkscape:snap-bbox-edge-midpoints="false"
     inkscape:snap-bbox-midpoints="false"
     inkscape:window-width="1920"
     inkscape:window-height="1017"
     inkscape:window-x="-8"
     inkscape:window-y="-8"
     inkscape:window-maximized="1" />
  <metadata
     id="metadata3156">
    <rdf:RDF>
      <cc:Work
         rdf:about="">
        <dc:format>image/svg+xml</dc:format>
        <dc:type
           rdf:resource="http://purl.org/dc/dcmitype/StillImage" />
        <dc:title></dc:title>
      </cc:Work>
    </rdf:RDF>
  </metadata>
  <g
     inkscape:label="Ebene 1"
     inkscape:groupmode="layer"
     id="layer1">
    <path
       style="fill:#d45500;filter:url(#filter3343)"
       d="m 163.22321,245.84432 -12.71875,48.1875 -65.906247,-48 -12.71875,48.15625 0,103.40625 78.781247,0 0,-0.15625 78.625,0 0,0.15625 78.78125,0 0,-0.15625 78.625,0 0,-103.40625 -66.0625,-48.1875 -12.71875,48.1875 -65.90625,-48 -12.71875,48.07812 z"
       id="rect3159-0"
       inkscape:connector-curvature="0"
       sodipodi:nodetypes="cccccccccccccccccc" />
    <path
       sodipodi:type="arc"
       style="fill:#ff9955"
       id="path3359"
       sodipodi:cx="140.71428"
       sodipodi:cy="127.36218"
       sodipodi:rx="60.714287"
       sodipodi:ry="59.285713"
       d="m 201.42857,127.36218 a 60.714287,59.285713 0 1 1 -121.428578,0 60.714287,59.285713 0 1 1 121.428578,0 z"
       transform="matrix(0.15294118,0,0,0.15662651,307.97733,258.59301)" />
    <path
       sodipodi:type="arc"
       style="fill:#ff9955"
       id="path3359-9"
       sodipodi:cx="140.71428"
       sodipodi:cy="127.36218"
       sodipodi:rx="60.714287"
       sodipodi:ry="59.285713"
       d="m 201.42857,127.36218 a 60.714287,59.285713 0 1 1 -121.428578,0 60.714287,59.285713 0 1 1 121.428578,0 z"
       transform="matrix(0.15294118,0,0,0.15662651,148.18463,261.6675)" />
    <rect
       style="fill:none;stroke:#ff9955;stroke-width:7.26901913;stroke-miterlimit:4;stroke-opacity:1;stroke-dasharray:none"
       id="rect3379-4"
       width="307.54349"
       height="87.071648"
       x="75.513977"
       y="306.88815" />
    <rect
       style="fill:none;stroke:#ff9955;stroke-width:5.1723938;stroke-miterlimit:4;stroke-opacity:1;stroke-dasharray:none"
       id="rect3379-4-8"
       width="152.05632"
       height="89.168274"
       x="74.465668"
       y="305.83984" />
    <rect
       style="fill:none;stroke:#ff9955;stroke-width:5.1723938;stroke-miterlimit:4;stroke-opacity:1;stroke-dasharray:none"
       id="rect3379-4-8-8"
       width="152.05632"
       height="89.168274"
       x="231.69438"
       y="305.83984" />
    <rect
       style="fill:#0088aa;stroke:#ff9955;stroke-width:7.32820368;stroke-miterlimit:4;stroke-opacity:1;stroke-dasharray:none"
       id="rect4205"
       width="31.491602"
       height="64.321556"
       x="88.047371"
       y="318.39795" />
    <rect
       style="fill:#0088aa;stroke:#ff9955;stroke-width:7.32820368;stroke-miterlimit:4;stroke-opacity:1;stroke-dasharray:none"
       id="rect4205-2"
       width="31.491602"
       height="64.321556"
       x="135.90335"
       y="318.39795" />
    <rect
       style="fill:#0088aa;stroke:#ff9955;stroke-width:7.32820368;stroke-miterlimit:4;stroke-opacity:1;stroke-dasharray:none"
       id="rect4205-2-4"
       width="31.491602"
       height="64.321556"
       x="183.75932"
       y="318.39795" />
    <rect
       style="fill:#0088aa;stroke:#ff9955;stroke-width:7.32820368;stroke-miterlimit:4;stroke-opacity:1;stroke-dasharray:none"
       id="rect4205-5"
       width="31.491602"
       height="64.321556"
       x="244.12076"
       y="318.26321" />
    <rect
       style="fill:#0088aa;stroke:#ff9955;stroke-width:7.32820368;stroke-miterlimit:4;stroke-opacity:1;stroke-dasharray:none"
       id="rect4205-2-5"
       width="31.491602"
       height="64.321556"
       x="291.97675"
       y="318.26321" />
    <rect
       style="fill:#0088aa;stroke:#ff9955;stroke-width:7.32820368;stroke-miterlimit:4;stroke-opacity:1;stroke-dasharray:none"
       id="rect4205-2-4-1"
       width="31.491602"
       height="64.321556"
       x="339.8327"
       y="318.26321" />
    <rect
       style="fill:#0055d4;stroke:none"
       id="rect4269"
       width="2.1465702"
       height="57.073608"
       x="102.71989"
       y="322.02191" />
    <rect
       style="fill:#0055d4;stroke:none"
       id="rect4269-7"
       width="2.1465681"
       height="24.11932"
       x="-351.99734"
       y="91.449852"
       transform="matrix(-6.302364e-4,-0.9999998,0.99999377,-0.00352896,0,0)" />
    <rect
       style="fill:#0055d4;stroke:none"
       id="rect4269-7-1"
       width="2.1465681"
       height="24.11932"
       x="-367.72879"
       y="91.281326"
       transform="matrix(-6.302364e-4,-0.9999998,0.99999377,-0.00352896,0,0)" />
    <rect
       style="fill:#0055d4;stroke:none"
       id="rect4269-7-1-1"
       width="2.1465681"
       height="24.11932"
       x="-336.47885"
       y="91.301025"
       transform="matrix(-6.302364e-4,-0.9999998,0.99999377,-0.00352896,0,0)" />
    <path
       style="opacity:0.36211529999999997;fill:url(#linearGradient4336);stroke:none;fill-opacity:1"
       d="m 91.964287,322.00504 23.749993,0 0,39.28572 c 0,0 -23.749993,-39.02767 -23.749993,-39.28572 z"
       id="rect4325"
       inkscape:connector-curvature="0"
       sodipodi:nodetypes="cccc" />
    <rect
       style="fill:#0055d4;stroke:none"
       id="rect4269-1"
       width="2.1465702"
       height="57.073608"
       x="150.49774"
       y="322.40524" />
    <rect
       style="fill:#0055d4;stroke:none"
       id="rect4269-7-4"
       width="2.1465681"
       height="24.11932"
       x="-352.54926"
       y="139.22765"
       transform="matrix(-6.302364e-4,-0.9999998,0.99999377,-0.00352896,0,0)" />
    <rect
       style="fill:#0055d4;stroke:none"
       id="rect4269-7-1-2"
       width="2.1465681"
       height="24.11932"
       x="-368.2807"
       y="139.05911"
       transform="matrix(-6.302364e-4,-0.9999998,0.99999377,-0.00352896,0,0)" />
    <rect
       style="fill:#0055d4;stroke:none"
       id="rect4269-7-1-1-3"
       width="2.1465681"
       height="24.11932"
       x="-337.03076"
       y="139.07881"
       transform="matrix(-6.302364e-4,-0.9999998,0.99999377,-0.00352896,0,0)" />
    <path
       style="opacity:0.3621153;fill:url(#linearGradient4336-5);fill-opacity:1;stroke:none"
       d="m 139.74213,322.38837 23.74999,0 0,39.28572 c 0,0 -23.74999,-39.02767 -23.74999,-39.28572 z"
       id="rect4325-2"
       inkscape:connector-curvature="0"
       sodipodi:nodetypes="cccc" />
    <rect
       style="fill:#0055d4;stroke:none"
       id="rect4269-5"
       width="2.1465702"
       height="57.073608"
       x="198.06921"
       y="322.28287" />
    <rect
       style="fill:#0055d4;stroke:none"
       id="rect4269-7-7"
       width="2.1465681"
       height="24.11932"
       x="-352.59479"
       y="186.79939"
       transform="matrix(-6.302364e-4,-0.9999998,0.99999377,-0.00352896,0,0)" />
    <rect
       style="fill:#0055d4;stroke:none"
       id="rect4269-7-1-6"
       width="2.1465681"
       height="24.11932"
       x="-368.32623"
       y="186.63086"
       transform="matrix(-6.302364e-4,-0.9999998,0.99999377,-0.00352896,0,0)" />
    <rect
       style="fill:#0055d4;stroke:none"
       id="rect4269-7-1-1-1"
       width="2.1465681"
       height="24.11932"
       x="-337.07629"
       y="186.65056"
       transform="matrix(-6.302364e-4,-0.9999998,0.99999377,-0.00352896,0,0)" />
    <path
       style="opacity:0.3621153;fill:url(#linearGradient4336-2);fill-opacity:1;stroke:none"
       d="m 187.31361,322.266 23.74999,0 0,39.28572 c 0,0 -23.74999,-39.02767 -23.74999,-39.28572 z"
       id="rect4325-8"
       inkscape:connector-curvature="0"
       sodipodi:nodetypes="cccc" />
    <rect
       style="fill:#0055d4;stroke:none"
       id="rect4269-4"
       width="2.1465702"
       height="57.073608"
       x="258.67834"
       y="321.7778" />
    <rect
       style="fill:#0055d4;stroke:none"
       id="rect4269-7-3"
       width="2.1465681"
       height="24.11932"
       x="-352.30359"
       y="247.40912"
       transform="matrix(-6.302364e-4,-0.9999998,0.99999377,-0.00352896,0,0)" />
    <rect
       style="fill:#0055d4;stroke:none"
       id="rect4269-7-1-12"
       width="2.1465681"
       height="24.11932"
       x="-368.03503"
       y="247.24057"
       transform="matrix(-6.302364e-4,-0.9999998,0.99999377,-0.00352896,0,0)" />
    <rect
       style="fill:#0055d4;stroke:none"
       id="rect4269-7-1-1-33"
       width="2.1465681"
       height="24.11932"
       x="-336.7851"
       y="247.26028"
       transform="matrix(-6.302364e-4,-0.9999998,0.99999377,-0.00352896,0,0)" />
    <path
       style="opacity:0.3621153;fill:url(#linearGradient4336-9);fill-opacity:1;stroke:none"
       d="m 247.92276,321.76092 23.75,0 0,39.28572 c 0,0 -23.75,-39.02767 -23.75,-39.28572 z"
       id="rect4325-4"
       inkscape:connector-curvature="0"
       sodipodi:nodetypes="cccc" />
    <rect
       style="fill:#0055d4;stroke:none"
       id="rect4269-2"
       width="2.1465702"
       height="57.073608"
       x="306.66061"
       y="321.77777" />
    <rect
       style="fill:#0055d4;stroke:none"
       id="rect4269-7-8"
       width="2.1465681"
       height="24.11932"
       x="-352.47293"
       y="295.39154"
       transform="matrix(-6.302364e-4,-0.9999998,0.99999377,-0.00352896,0,0)" />
    <rect
       style="fill:#0055d4;stroke:none"
       id="rect4269-7-1-60"
       width="2.1465681"
       height="24.11932"
       x="-368.20438"
       y="295.22302"
       transform="matrix(-6.302364e-4,-0.9999998,0.99999377,-0.00352896,0,0)" />
    <rect
       style="fill:#0055d4;stroke:none"
       id="rect4269-7-1-1-2"
       width="2.1465681"
       height="24.11932"
       x="-336.95444"
       y="295.24271"
       transform="matrix(-6.302364e-4,-0.9999998,0.99999377,-0.00352896,0,0)" />
    <path
       style="opacity:0.3621153;fill:url(#linearGradient4336-8);fill-opacity:1;stroke:none"
       d="m 295.90501,321.76092 23.75,0 0,39.28572 c 0,0 -23.75,-39.02767 -23.75,-39.28572 z"
       id="rect4325-48"
       inkscape:connector-curvature="0"
       sodipodi:nodetypes="cccc" />
    <rect
       style="fill:#0055d4;stroke:none"
       id="rect4269-0"
       width="2.1465702"
       height="57.073608"
       x="354.60489"
       y="321.86951" />
    <rect
       style="fill:#0055d4;stroke:none"
       id="rect4269-7-0"
       width="2.1465681"
       height="24.11932"
       x="-352.73386"
       y="343.33597"
       transform="matrix(-6.302364e-4,-0.9999998,0.99999377,-0.00352896,0,0)" />
    <rect
       style="fill:#0055d4;stroke:none"
       id="rect4269-7-1-61"
       width="2.1465681"
       height="24.11932"
       x="-368.4653"
       y="343.16742"
       transform="matrix(-6.302364e-4,-0.9999998,0.99999377,-0.00352896,0,0)" />
    <rect
       style="fill:#0055d4;stroke:none"
       id="rect4269-7-1-1-38"
       width="2.1465681"
       height="24.11932"
       x="-337.21536"
       y="343.18713"
       transform="matrix(-6.302364e-4,-0.9999998,0.99999377,-0.00352896,0,0)" />
    <path
       style="opacity:0.3621153;fill:url(#linearGradient4336-6);fill-opacity:1;stroke:none"
       d="m 343.84927,321.85265 23.75,0 0,39.28572 c 0,0 -23.75,-39.02767 -23.75,-39.28572 z"
       id="rect4325-9"
       inkscape:connector-curvature="0"
       sodipodi:nodetypes="cccc" />
  </g>
</svg>
