<?xml version="1.0" encoding="UTF-8" standalone="no"?>
<!-- Created with Inkscape (http://www.inkscape.org/) -->

<svg
   xmlns:dc="http://purl.org/dc/elements/1.1/"
   xmlns:cc="http://creativecommons.org/ns#"
   xmlns:rdf="http://www.w3.org/1999/02/22-rdf-syntax-ns#"
   xmlns:svg="http://www.w3.org/2000/svg"
   xmlns="http://www.w3.org/2000/svg"
   xmlns:sodipodi="http://sodipodi.sourceforge.net/DTD/sodipodi-0.dtd"
   xmlns:inkscape="http://www.inkscape.org/namespaces/inkscape"
   width="210mm"
   height="297mm"
   id="svg3796"
   version="1.1"
   inkscape:version="0.48.5 r10040"
   sodipodi:docname="Neues Dokument 8">
  <defs
     id="defs3798" />
  <sodipodi:namedview
     id="base"
     pagecolor="#51eef2"
     bordercolor="#666666"
     borderopacity="1.0"
     inkscape:pageopacity="0"
     inkscape:pageshadow="2"
     inkscape:zoom="1.4142136"
     inkscape:cx="185.81159"
     inkscape:cy="673.93064"
     inkscape:document-units="px"
     inkscape:current-layer="layer1"
     showgrid="false"
     inkscape:snap-bbox="true"
     inkscape:bbox-paths="true"
     inkscape:bbox-nodes="true"
     inkscape:snap-bbox-edge-midpoints="true"
     inkscape:snap-bbox-midpoints="true"
     inkscape:snap-global="true"
     inkscape:window-width="1920"
     inkscape:window-height="1017"
     inkscape:window-x="-8"
     inkscape:window-y="-8"
     inkscape:window-maximized="1" />
  <metadata
     id="metadata3801">
    <rdf:RDF>
      <cc:Work
         rdf:about="">
        <dc:format>image/svg+xml</dc:format>
        <dc:type
           rdf:resource="http://purl.org/dc/dcmitype/StillImage" />
        <dc:title></dc:title>
      </cc:Work>
    </rdf:RDF>
  </metadata>
  <g
     inkscape:label="Ebene 1"
     inkscape:groupmode="layer"
     id="layer1"
     style="display:inline">
    <g
       id="g6347">
      <rect
         transform="matrix(0,1,-1,0,0,0)"
         y="-283.52164"
         x="298.89865"
         height="110.29396"
         width="84.731659"
         id="rect5960-76"
         style="fill:#b3b3b3;stroke:none;display:inline" />
      <rect
         y="298.89865"
         x="159.93178"
         height="84.731697"
         width="13.295898"
         id="rect5960"
         style="fill:#b3b3b3;stroke:none" />
      <rect
         y="298.89865"
         x="283.52164"
         height="84.731697"
         width="13.295895"
         id="rect5960-15"
         style="fill:#b3b3b3;stroke:none;display:inline" />
      <path
         sodipodi:nodetypes="cccccc"
         inkscape:connector-curvature="0"
         id="rect5960-15-2"
         d="m 296.81754,298.89865 14.93651,0.008 -1.65579,5.63 0.0152,79.09389 -13.29589,0 z"
         style="fill:#b3b3b3;stroke:none;display:inline" />
      <path
         sodipodi:nodetypes="cccccc"
         inkscape:connector-curvature="0"
         id="rect5960-15-2-6"
         d="m 159.93178,298.89865 -14.93651,0.008 1.65579,5.63 -0.0152,79.09389 13.29589,0 z"
         style="fill:#b3b3b3;stroke:none;display:inline" />
    </g>
    <path
       style="opacity:0.21;fill:#000000;stroke:none"
       d="m 144.99527,298.89865 2.07612,5.625 -0.0391,79.09375 16.68729,0 16.6481,0 21.07455,0 0,-84.71875 -56.44688,0 z"
       id="rect6345"
       inkscape:connector-curvature="0" />
    <rect
       style="fill:#b3b3b3;stroke:none;display:inline"
       id="rect5960-76-1"
       width="20.295895"
       height="150.13861"
       x="278.60275"
       y="-303.44397"
       transform="matrix(0,1,-1,0,0,0)" />
    <path
       style="fill:#ffcc00;stroke:none"
       d="m 228.02122,175.67597 c -22.47011,0 -40.6857,17.99256 -40.6857,40.1875 0,0.39929 0.018,0.79101 0.0295,1.1875 l 81.31207,0 c 0.0117,-0.39649 0.0296,-0.78821 0.0296,-1.1875 0,-22.19494 -18.21559,-40.1875 -40.6857,-40.1875 z"
       id="path6098"
       inkscape:connector-curvature="0"
       sodipodi:nodetypes="csccscc" />
    <rect
       style="fill:#b3b3b3;stroke:none"
       id="rect6118"
       width="85.75"
       height="47.875"
       x="185.49966"
       y="230.72775" />
    <path
       style="fill:#b3b3b3;stroke:none;display:inline"
       d="m 217.22775,-272.66387 13.50001,1.41421 0,85.75 -13.67679,2.12132 z"
       id="rect5960-76-1-5"
       transform="matrix(0,1,-1,0,0,0)"
       inkscape:connector-curvature="0"
       sodipodi:nodetypes="ccccc" />
    <g
       id="g6354">
      <path
         sodipodi:nodetypes="ccccc"
         inkscape:connector-curvature="0"
         id="rect5777-1-7"
         d="m 233.39367,326.72409 9.6405,0.003 1.03663,58.67103 -11.66688,0 z"
         style="fill:#cccccc;stroke:none;display:inline" />
      <path
         sodipodi:nodetypes="ccccc"
         inkscape:connector-curvature="0"
         id="rect5777-1-7-4"
         d="m 213.66824,326.7241 9.6405,0.003 1.03663,58.67103 -11.66688,0 z"
         style="fill:#cccccc;stroke:none;display:inline" />
      <path
         sodipodi:nodetypes="ccccc"
         inkscape:connector-curvature="0"
         id="rect5777-1-7-8"
         d="m 193.94284,326.7241 9.6405,0.003 1.03663,58.67103 -11.66688,0 z"
         style="fill:#cccccc;stroke:none;display:inline" />
      <path
         sodipodi:nodetypes="ccccc"
         inkscape:connector-curvature="0"
         id="rect5777-1-7-82"
         d="m 174.21742,326.7241 9.6405,0.003 1.03663,58.67103 -11.66688,0 z"
         style="fill:#cccccc;stroke:none;display:inline" />
      <path
         sodipodi:nodetypes="ccccc"
         inkscape:connector-curvature="0"
         id="rect5777-1-7-45"
         d="m 253.11906,326.72409 9.6405,0.003 1.03663,58.67103 -11.66688,0 z"
         style="fill:#cccccc;stroke:none;display:inline" />
      <path
         sodipodi:nodetypes="ccccc"
         inkscape:connector-curvature="0"
         id="rect5777-1-7-45-1"
         d="m 272.8445,326.72409 9.6405,0.003 1.03663,58.67103 -11.66688,0 z"
         style="fill:#cccccc;stroke:none;display:inline" />
      <path
         id="rect6215"
         d="M 174.1875 328.71875 L 173.21875 385.40625 L 177.09375 385.40625 L 177.09375 328.71875 L 174.1875 328.71875 z "
         style="opacity:0.28799998;fill:#000000;stroke:none" />
      <path
         id="rect6215-2"
         d="m 193.92184,328.71063 -0.96875,56.6875 3.875,0 0,-56.6875 -2.90625,0 z"
         style="opacity:0.28800001;fill:#000000;stroke:none;display:inline"
         inkscape:connector-curvature="0" />
      <path
         id="rect6215-2-7"
         d="m 213.64724,328.71063 -0.96875,56.6875 3.875,0 0,-56.6875 -2.90625,0 z"
         style="opacity:0.28800001;fill:#000000;stroke:none;display:inline"
         inkscape:connector-curvature="0" />
      <path
         id="rect6215-2-9"
         d="m 233.37267,328.71062 -0.96875,56.6875 3.875,0 0,-56.6875 -2.90625,0 z"
         style="opacity:0.28800001;fill:#000000;stroke:none;display:inline"
         inkscape:connector-curvature="0" />
      <path
         id="rect6215-2-9-5"
         d="m 253.09806,328.71062 -0.96875,56.6875 3.875,0 0,-56.6875 -2.90625,0 z"
         style="opacity:0.28800001;fill:#000000;stroke:none;display:inline"
         inkscape:connector-curvature="0" />
      <path
         id="rect6215-2-9-4"
         d="m 272.8235,328.71062 -0.96875,56.6875 3.875,0 0,-56.6875 -2.90625,0 z"
         style="opacity:0.28800001;fill:#000000;stroke:none;display:inline"
         inkscape:connector-curvature="0" />
    </g>
    <path
       style="fill:#cccccc;stroke:#808080;stroke-width:3.77863193000000000"
       d="m 228.06597,300.78797 -52.94898,18.21315 c 0,2.6112 0,5.22239 0,7.83361 l 106.51533,0 0,-7.83361 z"
       id="rect5912"
       inkscape:connector-curvature="0"
       sodipodi:nodetypes="cccccc" />
    <path
       style="opacity:0.21;fill:#000000;stroke:none"
       d="m 205.90625,306.25 -32.55358,11.2502 -0.125,11.22385 32.67858,0 z"
       id="rect6317"
       inkscape:connector-curvature="0"
       sodipodi:nodetypes="ccccc" />
    <rect
       style="opacity:0.21;fill:#000000;stroke:none"
       id="rect6479"
       width="42.142731"
       height="20.295902"
       x="153.30536"
       y="278.60275" />
    <rect
       style="opacity:0.21000001;fill:#000000;stroke:none;display:inline"
       id="rect6479-2"
       width="20.407835"
       height="47.874546"
       x="185.49966"
       y="230.72775" />
    <path
       style="opacity:0.21000001;fill:#000000;stroke:none;display:inline"
       d="m 183.37834,217.04561 2.35039,13.6875 30.83188,0 0,-13.65625 -33.18227,-0.0312 z"
       id="rect6479-2-4"
       inkscape:connector-curvature="0"
       sodipodi:nodetypes="cccccc" />
    <g
       id="g6577">
      <path
         sodipodi:nodetypes="ccccc"
         inkscape:connector-curvature="0"
         id="rect5777-1-7-3"
         d="m 231.93892,230.76574 6.84621,0.002 0.73617,47.83455 -8.28525,0 z"
         style="fill:#cccccc;stroke:none;display:inline" />
      <path
         sodipodi:nodetypes="ccccc"
         inkscape:connector-curvature="0"
         id="rect5777-1-7-4-2"
         d="m 217.93089,230.76575 6.84621,0.002 0.73616,47.83455 -8.28525,0 z"
         style="fill:#cccccc;stroke:none;display:inline" />
      <path
         sodipodi:nodetypes="ccccc"
         inkscape:connector-curvature="0"
         id="rect5777-1-7-8-2"
         d="m 203.92287,230.76575 6.84621,0.002 0.73617,47.83455 -8.28525,0 z"
         style="fill:#cccccc;stroke:none;display:inline" />
      <path
         sodipodi:nodetypes="ccccc"
         inkscape:connector-curvature="0"
         id="rect5777-1-7-82-1"
         d="m 189.91484,230.76575 6.84622,0.002 0.73616,47.83455 -8.28525,0 z"
         style="fill:#cccccc;stroke:none;display:inline" />
      <path
         sodipodi:nodetypes="ccccc"
         inkscape:connector-curvature="0"
         id="rect5777-1-7-45-6"
         d="m 245.94693,230.76574 6.84621,0.002 0.73616,47.83455 -8.28524,0 z"
         style="fill:#cccccc;stroke:none;display:inline" />
      <path
         sodipodi:nodetypes="ccccc"
         inkscape:connector-curvature="0"
         id="rect5777-1-7-45-1-8"
         d="m 259.95497,230.76574 6.84621,0.002 0.73617,47.83455 -8.28525,0 z"
         style="fill:#cccccc;stroke:none;display:inline" />
      <path
         id="rect6479-6"
         d="M 189.90625 230.78125 L 189.21875 278.59375 L 191.90625 278.59375 L 191.90625 230.78125 L 189.90625 230.78125 z "
         style="opacity:0.29;fill:#000000;stroke:none;display:inline" />
      <path
         id="rect6479-6-0"
         d="m 203.9075,230.77778 -0.6875,47.8125 2.6875,0 0,-47.8125 -2,0 z"
         style="opacity:0.29;fill:#000000;stroke:none;display:inline"
         inkscape:connector-curvature="0" />
      <path
         id="rect6479-6-2"
         d="m 217.91551,230.77778 -0.6875,47.8125 2.6875,0 0,-47.8125 -2,0 z"
         style="opacity:0.29;fill:#000000;stroke:none;display:inline"
         inkscape:connector-curvature="0" />
      <path
         id="rect6479-6-8"
         d="m 231.92355,230.77777 -0.6875,47.8125 2.6875,0 0,-47.8125 -2,0 z"
         style="opacity:0.29;fill:#000000;stroke:none;display:inline"
         inkscape:connector-curvature="0" />
      <path
         id="rect6479-6-6"
         d="m 245.93156,230.77777 -0.6875,47.8125 2.6875,0 0,-47.8125 -2,0 z"
         style="opacity:0.29;fill:#000000;stroke:none;display:inline"
         inkscape:connector-curvature="0" />
      <path
         id="rect6479-6-6-0"
         d="m 259.9396,230.77777 -0.6875,47.8125 2.6875,0 0,-47.8125 -2,0 z"
         style="opacity:0.29;fill:#000000;stroke:none;display:inline"
         inkscape:connector-curvature="0" />
    </g>
    <path
       style="fill:#ffffff;stroke:none;display:inline;opacity:0.48"
       d="m 227.81248,179.8939 c 11.9155,7.98641 22.9068,21.88878 25.39633,35.74546 l 11.42577,0.0625 c 0.0101,-0.32488 -0.005,-2.55209 -0.005,-2.87926 0,-18.18602 -16.48391,-32.9287 -36.81787,-32.9287 z"
       id="path6098-6"
       inkscape:connector-curvature="0"
       sodipodi:nodetypes="cccscc" />
    <path
       style="opacity:0.2;fill:#000000;stroke:none;display:inline"
       d="m 213.81058,178.05097 c -15.8966,6.48817 -26.46683,20.62455 -26.46683,37.6368 0,0.46225 0.0262,0.91573 0.0414,1.37473 l 26.30048,0 z"
       id="path6098-5"
       inkscape:connector-curvature="0"
       sodipodi:nodetypes="csccc" />
    <rect
       style="opacity:0.25;fill:#ffffff;stroke:none"
       id="rect6687"
       width="10.606602"
       height="20.295895"
       x="292.74222"
       y="278.60275" />
    <rect
       style="opacity:0.25;fill:#ffffff;stroke:none;display:inline"
       id="rect6687-0"
       width="10.163543"
       height="84.731888"
       x="301.59052"
       y="298.89865" />
  </g>
</svg>
